<!DOCTYPE svg PUBLIC "-//W3C//DTD SVG 1.1//EN" "http://www.w3.org/Graphics/SVG/1.1/DTD/svg11.dtd">
<!-- Uploaded to: SVG Repo, www.svgrepo.com, Transformed by: SVG Repo Mixer Tools -->
<svg width="168px" height="168px" viewBox="-5.28 -5.28 58.56 58.56" xmlns="http://www.w3.org/2000/svg" fill="#1680fb" stroke="#1680fb" stroke-width="0.00048000000000000007">
<g id="SVGRepo_bgCarrier" stroke-width="0" transform="translate(3.6000000000000014,3.6000000000000014), scale(0.85)">
<path transform="translate(-5.28, -5.28), scale(1.83)" d="M16,26.112357893493026C17.593654410994635,26.16157969073174,19.19840337612286,26.285868402966948,20.71187418669945,25.78430756663829C22.31407067004887,25.25334324110537,23.72561899405364,24.297123642268918,24.95793811740638,23.143717267886924C26.29605323335813,21.891289649790252,27.466456318991565,20.465735358020375,28.19237314395466,18.782829607437368C28.987275456731847,16.939993586392585,29.694344917617265,14.929928695181912,29.354101908838203,12.952013382966637C29.010657839034288,10.955489524938422,27.706454936101444,9.244187836108381,26.30060803518586,7.785539202631014C24.953136882668517,6.387458832720512,23.279753550920777,5.313013152811069,21.428136216897492,4.72835900210314C19.67969140811015,4.176281909305522,17.832577543926213,4.592316585027652,16,4.533088962547481C14.109915490067117,4.472002755210198,12.050602390322775,3.4486889444648163,10.400223649952338,4.371944593106283C8.732976710154903,5.304636657779074,8.516935529743801,7.613547138227708,7.549146624476547,9.260669319673006C6.706851741447827,10.694207746910259,5.872151243455637,12.059675011476422,5.038078773704067,13.498013013319081C3.9164571938862496,15.432222569977007,1.9915619330224295,17.027718395970172,1.755807452958802,19.25114399681896C1.5129597045789802,21.541466966335598,1.8010836536753068,24.530764989075315,3.7357501528524963,25.78041288770522C5.917911241498519,27.189923529491914,8.829394455219871,25.42722398418468,11.42624005874777,25.497510380795685C12.983499339039566,25.539659264522953,14.442912938196194,26.06426551969456,16,26.112357893493026" fill="#f4f9fc" strokewidth="0"/>
</g>
<g id="SVGRepo_tracerCarrier" stroke-linecap="round" stroke-linejoin="round" stroke="#CCCCCC" stroke-width="0.096"/>
<g id="SVGRepo_iconCarrier"> <path d="M0 0h48v48H0z" fill="none"/> <g id="Shopicon"> <path d="M8.083,32c-2.2,0-4,1.8-4,4v4c0,2.2,1.8,4,4,4h4c2.2,0,4-1.8,4-4v-4c0-2.2-1.8-4-4-4H8.083z M12.083,40h-4v-4h4V40z"/> <path d="M22.083,22c-2.2,0-4,1.8-4,4v14c0,2.2,1.8,4,4,4h4c2.2,0,4-1.8,4-4V26c0-2.2-1.8-4-4-4H22.083z M26.083,40h-4V26h4V40z"/> <path d="M44.083,8c0-2.2-1.8-4-4-4h-4c-2.2,0-4,1.8-4,4v32c0,2.2,1.8,4,4,4h4c2.2,0,4-1.8,4-4V8z M40.083,40h-4V8h4V40z"/> </g> </g>
</svg>