<svg version="1.1" id="Layer_1" xmlns="http://www.w3.org/2000/svg" xmlns:xlink="http://www.w3.org/1999/xlink" x="0px" y="0px"
	 width="100%" viewBox="0 0 151 133" enable-background="new 0 0 151 133" xml:space="preserve">
<path fill="#FFFFFF" opacity="1.000000" stroke="none" 
	d="
M103.000000,134.000000 
	C68.696472,134.000000 34.892937,134.000000 1.044703,134.000000 
	C1.044703,89.735558 1.044703,45.471058 1.044703,1.103278 
	C51.219955,1.103278 101.440193,1.103278 151.830215,1.103278 
	C151.830215,45.332798 151.830215,89.666351 151.830215,134.000000 
	C135.804764,134.000000 119.652382,134.000000 103.000000,134.000000 
M37.923767,70.288376 
	C36.505104,80.107010 34.553040,89.941605 37.050373,99.838524 
	C39.303009,108.765732 42.163105,117.174019 51.118412,122.208885 
	C59.956017,127.177597 68.950455,126.446564 78.081154,124.405876 
	C92.083427,121.276405 104.377243,114.730873 115.361786,105.442734 
	C126.472939,96.047539 135.617584,85.282181 139.962830,71.219437 
	C142.333847,63.545998 142.280701,55.468697 137.101456,48.840111 
	C128.294830,37.569111 116.134720,31.935427 101.903648,29.164511 
	C100.595345,28.769945 99.288483,28.037384 97.978531,28.031837 
	C80.168129,27.956436 62.357285,27.972914 44.546616,28.003885 
	C43.456509,28.005781 42.366947,28.319040 41.061329,28.520771 
	C41.061329,36.454197 40.738934,44.116058 41.174118,51.734642 
	C41.466629,56.855564 40.231949,60.792961 36.006977,63.760227 
	C32.605022,66.149475 31.851082,69.374832 33.196304,73.562904 
	C34.910080,72.017822 36.377983,70.694405 37.923767,70.288376 
z"/>
<path fill="#FEEBF1" opacity="1.000000" stroke="none" 
	d="
M102.141922,29.980806 
	C116.134720,31.935427 128.294830,37.569111 137.101456,48.840111 
	C142.280701,55.468697 142.333847,63.545998 139.962830,71.219437 
	C135.617584,85.282181 126.472939,96.047539 115.361786,105.442734 
	C104.377243,114.730873 92.083427,121.276405 78.081154,124.405876 
	C68.950455,126.446564 59.956017,127.177597 51.118412,122.208885 
	C42.163105,117.174019 39.303009,108.765732 37.050373,99.838524 
	C34.553040,89.941605 36.505104,80.107010 38.059998,69.553673 
	C38.927937,68.283920 39.659649,67.748871 41.277893,66.565567 
	C41.277893,74.512161 41.277893,81.549660 41.277893,88.992233 
	C45.547028,88.992233 49.135456,88.992233 53.570419,88.992233 
	C50.340260,95.196953 47.471195,100.708061 44.544487,106.329895 
	C48.179279,107.786430 50.311287,106.986862 51.762188,103.771904 
	C53.197594,100.591278 55.008053,97.580841 56.631145,94.483780 
	C60.013077,88.030647 61.333847,87.503220 69.056671,89.801071 
	C69.056671,94.180992 69.187691,98.666641 69.016853,103.140755 
	C68.869705,106.994125 70.352295,107.839493 74.092773,106.179428 
	C74.092773,100.573792 74.092773,94.971420 74.092773,89.463547 
	C82.961342,87.929741 82.957329,87.931839 86.575775,94.847038 
	C88.119728,97.797668 89.840988,100.667473 91.196724,103.701340 
	C92.627785,106.903755 94.762596,107.797112 98.466248,106.348160 
	C95.553902,100.768173 92.676651,95.255424 89.352547,88.886505 
	C93.943291,88.886505 97.655952,88.886505 101.943916,88.886505 
	C101.943916,80.488350 102.194466,72.697464 101.848793,64.933121 
	C101.645416,60.365036 102.654495,56.854828 106.606354,54.289261 
	C110.097031,52.023090 110.890862,48.716328 109.609001,44.343399 
	C107.157555,46.553844 104.912796,48.577927 102.141922,51.076401 
	C102.141922,43.501038 102.141922,36.740921 102.141922,29.980806 
z"/>
<path fill="#F74F85" opacity="1.000000" stroke="none" 
	d="
M102.022781,29.572659 
	C102.141922,36.740921 102.141922,43.501038 102.141922,51.076401 
	C104.912796,48.577927 107.157555,46.553844 109.609001,44.343399 
	C110.890862,48.716328 110.097031,52.023090 106.606354,54.289261 
	C102.654495,56.854828 101.645416,60.365036 101.848793,64.933121 
	C102.194466,72.697464 101.943916,80.488350 101.943916,88.886505 
	C97.655952,88.886505 93.943291,88.886505 89.352547,88.886505 
	C92.676651,95.255424 95.553902,100.768173 98.466248,106.348160 
	C94.762596,107.797112 92.627785,106.903755 91.196724,103.701340 
	C89.840988,100.667473 88.119728,97.797668 86.575775,94.847038 
	C82.957329,87.931839 82.961342,87.929741 74.092773,89.463547 
	C74.092773,94.971420 74.092773,100.573792 74.092773,106.179428 
	C70.352295,107.839493 68.869705,106.994125 69.016853,103.140755 
	C69.187691,98.666641 69.056671,94.180992 69.056671,89.801071 
	C61.333847,87.503220 60.013077,88.030647 56.631145,94.483780 
	C55.008053,97.580841 53.197594,100.591278 51.762188,103.771904 
	C50.311287,106.986862 48.179279,107.786430 44.544487,106.329895 
	C47.471195,100.708061 50.340260,95.196953 53.570419,88.992233 
	C49.135456,88.992233 45.547028,88.992233 41.277893,88.992233 
	C41.277893,81.549660 41.277893,74.512161 41.277893,66.565567 
	C39.659649,67.748871 38.927937,68.283920 38.021057,69.094986 
	C36.377983,70.694405 34.910080,72.017822 33.196304,73.562904 
	C31.851082,69.374832 32.605022,66.149475 36.006977,63.760227 
	C40.231949,60.792961 41.466629,56.855564 41.174118,51.734642 
	C40.738934,44.116058 41.061329,36.454197 41.061329,28.520771 
	C42.366947,28.319040 43.456509,28.005781 44.546616,28.003885 
	C62.357285,27.972914 80.168129,27.956436 97.978531,28.031837 
	C99.288483,28.037384 100.595345,28.769945 102.022781,29.572659 
M66.053169,33.033794 
	C59.492287,33.033794 52.931400,33.033794 46.473511,33.033794 
	C46.473511,40.009659 46.473511,46.181385 46.473511,52.954071 
	C50.642345,48.999477 54.322334,45.508602 58.562565,42.366646 
	C67.330215,51.071613 76.097870,59.776585 85.380173,68.992538 
	C88.487915,65.615364 91.113716,62.848820 93.631584,59.987289 
	C94.806290,58.652264 96.625595,57.169628 96.688423,55.691654 
	C97.002945,48.292751 96.832436,40.873230 96.832436,33.138008 
	C86.488785,33.138008 76.735832,33.138008 66.053169,33.033794 
M81.738091,72.881821 
	C73.687500,65.216576 65.636909,57.551334 56.915386,49.247269 
	C55.074013,51.266499 52.699085,53.786324 50.425209,56.394253 
	C48.928974,58.110287 46.480782,59.880692 46.356911,61.752361 
	C45.878437,68.981995 46.162598,76.262100 46.162598,83.588524 
	C63.357956,83.588524 79.899719,83.588524 96.662857,83.588524 
	C96.662857,77.182266 96.662857,71.123337 96.662857,63.998573 
	C93.192955,67.507492 90.230736,70.316994 87.496071,73.332832 
	C85.625763,75.395447 84.034492,75.687210 81.738091,72.881821 
z"/>
<path fill="#FEE7EF" opacity="1.000000" stroke="none" 
	d="
M81.997040,73.140350 
	C84.034492,75.687210 85.625763,75.395447 87.496071,73.332832 
	C90.230736,70.316994 93.192955,67.507492 96.662857,63.998573 
	C96.662857,71.123337 96.662857,77.182266 96.662857,83.588524 
	C79.899719,83.588524 63.357956,83.588524 46.162598,83.588524 
	C46.162598,76.262100 45.878437,68.981995 46.356911,61.752361 
	C46.480782,59.880692 48.928974,58.110287 50.425209,56.394253 
	C52.699085,53.786324 55.074013,51.266499 56.915386,49.247269 
	C65.636909,57.551334 73.687500,65.216576 81.997040,73.140350 
z"/>
<path fill="#FEEBF1" opacity="1.000000" stroke="none" 
	d="
M66.982880,33.138008 
	C76.735832,33.138008 86.488785,33.138008 96.832436,33.138008 
	C96.832436,40.873230 97.002945,48.292751 96.688423,55.691654 
	C96.625595,57.169628 94.806290,58.652264 93.631584,59.987289 
	C91.113716,62.848820 88.487915,65.615364 85.380173,68.992538 
	C76.097870,59.776585 67.330215,51.071613 58.314754,41.841534 
	C59.397312,39.996265 60.686352,38.630867 62.068897,37.367825 
	C63.663834,35.910751 65.341270,34.543987 66.982880,33.138008 
z"/>
<path fill="#FFFAFC" opacity="1.000000" stroke="none" 
	d="
M66.518021,33.085899 
	C65.341270,34.543987 63.663834,35.910751 62.068897,37.367825 
	C60.686352,38.630867 59.397312,39.996265 58.034634,41.667076 
	C54.322334,45.508602 50.642345,48.999477 46.473511,52.954071 
	C46.473511,46.181385 46.473511,40.009659 46.473511,33.033794 
	C52.931400,33.033794 59.492287,33.033794 66.518021,33.085899 
z"/>
</svg>