<!DOCTYPE svg PUBLIC "-//W3C//DTD SVG 1.1//EN" "http://www.w3.org/Graphics/SVG/1.1/DTD/svg11.dtd">
<!-- Uploaded to: SVG Repo, www.svgrepo.com, Transformed by: SVG Repo Mixer Tools -->
<svg fill="#1681fa" version="1.1" id="Layer_1" xmlns="http://www.w3.org/2000/svg" xmlns:xlink="http://www.w3.org/1999/xlink" viewBox="-97.28 -97.28 706.56 706.56" xml:space="preserve" width="256px" height="256px" stroke="#1681fa" stroke-width="5.12">
<g id="SVGRepo_bgCarrier" stroke-width="0" transform="translate(0,0), scale(1)">
<path transform="translate(-97.28, -97.28), scale(22.08)" d="M16,27.948126337025315C19.689313921337476,28.364218836609805,23.66061708480835,28.85759320892175,26.633197221816282,26.633197221816285C29.933646848305287,24.163454921716184,32.336114633175335,20.105641666174044,31.966924607753754,16C31.614334263208754,12.078957962091248,27.862170647351157,9.689907623035191,24.87864168847277,7.121358311527231C22.219632208382425,4.832190998753181,19.508491717956005,2.220687671119032,16,2.253918170928955C12.513497745342718,2.28694039866224,9.794601577165244,4.864421742331942,7.287967482320582,7.287967482320578C4.720582166921251,9.770250699022387,1.73399303984476,12.429169592370549,1.7826502653770149,15.999999999999998C1.8309874618251485,19.547344284604588,4.806252903222946,22.19534120798399,7.522201370660607,24.47779862933939C9.952343947866964,26.520067481932667,12.845655065507236,27.592369332788344,16,27.948126337025315" fill="#f5fafc" strokewidth="0"/>
</g>
<g id="SVGRepo_tracerCarrier" stroke-linecap="round" stroke-linejoin="round"/>
<g id="SVGRepo_iconCarrier"> <g> <g> <polygon points="478.609,55.652 478.609,155.826 33.391,155.826 33.391,55.652 0,55.652 0,456.348 33.391,456.348 33.391,189.217 478.609,189.217 478.609,456.348 512,456.348 512,55.652 "/> </g> </g> <g> <g> <rect x="33.391" y="22.261" width="445.217" height="33.391"/> </g> </g> <g> <g> <rect x="33.391" y="456.348" width="445.217" height="33.391"/> </g> </g> <g> <g> <rect x="411.826" y="89.044" width="33.391" height="33.391"/> </g> </g> <g> <g> <rect x="345.043" y="89.044" width="33.391" height="33.391"/> </g> </g> <g> <g> <rect x="77.913" y="233.739" width="356.174" height="33.391"/> </g> </g> <g> <g> <rect x="77.913" y="311.652" width="178.087" height="33.391"/> </g> </g> </g>
</svg>